<?xml version="1.0" encoding="iso-8859-1"?>
<!-- Generator: Adobe Illustrator 19.0.0, SVG Export Plug-In . SVG Version: 6.00 Build 0)  -->
<svg xmlns="http://www.w3.org/2000/svg" xmlns:xlink="http://www.w3.org/1999/xlink" version="1.1" id="Layer_1" x="0px" y="0px" viewBox="0 0 512 512" style="enable-background:new 0 0 512 512;" xml:space="preserve" width="512" height="512">
<g>
	<g>
		<path style="fill-rule:evenodd;clip-rule:evenodd;fill:#F9F9F9;" d="M62.083,30.063v261.401v190.446    c0,10.995,8.98,20.006,19.973,20.006h347.861c10.991,0,20-9.011,20-20.006V77.723h-47.649c-10.99,0-19.999-8.982-19.999-19.977    V10.085H82.056H81.97C71.006,10.142,62.083,19.125,62.083,30.063L62.083,30.063z"/>
	</g>
	<g>
		<path style="fill-rule:evenodd;clip-rule:evenodd;fill:#F46370;" d="M119.078,260.774v65.938c0,5.498,4.478,10.003,9.973,10.003    h45.976c5.496,0,9.999-4.505,9.999-10.003v-65.938c0-5.497-4.503-9.975-9.999-9.975h-45.976    C123.556,250.8,119.078,255.277,119.078,260.774L119.078,260.774z"/>
	</g>
	<g>
		<path style="fill-rule:evenodd;clip-rule:evenodd;fill:#B0E7F8;" d="M224.996,222.096v104.617c0,5.498,4.503,10.003,9.999,10.003    h45.976c5.495,0,9.972-4.505,9.972-10.003V222.096c0-5.497-4.477-9.974-9.972-9.974h-45.976    C229.499,212.122,224.996,216.599,224.996,222.096L224.996,222.096z"/>
	</g>
	<g>
		<path style="fill-rule:evenodd;clip-rule:evenodd;fill:#52CBF0;" d="M330.912,189.084v137.515c0,5.498,4.503,10.003,9.998,10.003    h45.977c5.495,0,10-4.505,10-10.003V189.084c0-5.497-4.505-9.975-10-9.975H340.91    C335.415,179.109,330.912,183.587,330.912,189.084L330.912,189.084z"/>
	</g>
	<g>
		<path style="fill-rule:evenodd;clip-rule:evenodd;fill:#C6C4C8;" d="M382.269,10.085v47.661c0,10.995,9.009,19.977,19.999,19.977    h47.649L382.269,10.085z"/>
	</g>
	<g>
		<path d="M108.995,260.774v65.938c0,11.077,8.997,20.088,20.056,20.088h45.976c11.074,0,20.082-9.012,20.082-20.088v-65.938    c0-11.061-9.008-20.059-20.082-20.059h-45.976C117.992,240.715,108.995,249.714,108.995,260.774z M129.162,260.885l45.78-0.014    l0.007,65.76h-45.787V260.885z"/>
		<path d="M280.971,346.801c11.059,0,20.055-9.012,20.055-20.088V222.096c0-11.061-8.996-20.059-20.055-20.059h-45.976    c-11.074,0-20.083,8.999-20.083,20.059v104.617c0,11.077,9.009,20.088,20.083,20.088H280.971z M235.079,222.206h45.779    l0.013,104.424h-45.792V222.206z"/>
		<path d="M406.97,326.599V189.084c0-11.061-9.009-20.06-20.083-20.06H340.91c-11.074,0-20.083,8.999-20.083,20.06v137.515    c0,11.077,9.009,20.088,20.083,20.088h45.977C397.961,346.688,406.97,337.676,406.97,326.599z M340.994,326.518V189.194    l45.809-0.014l0.008,137.337H340.994z"/>
		<path d="M112.849,389.251c0,5.57,4.514,10.085,10.083,10.085h213.362c5.569,0,10.084-4.515,10.084-10.085    c0-5.57-4.515-10.085-10.084-10.085H122.932C117.362,379.166,112.849,383.681,112.849,389.251z"/>
		<path d="M376.376,418.751H122.932c-5.569,0-10.083,4.515-10.083,10.085c0,5.57,4.514,10.085,10.083,10.085h253.444    c5.57,0,10.085-4.515,10.085-10.085C386.461,423.266,381.946,418.751,376.376,418.751z"/>
		<path d="M376.66,379.166h-0.284c-5.567,0-10.083,4.515-10.083,10.085c0,5.57,4.516,10.085,10.083,10.085h0.284    c5.569,0,10.084-4.515,10.084-10.085C386.744,383.681,382.229,379.166,376.66,379.166z"/>
		<path d="M459.949,76.717c-0.232-2.311-1.281-4.471-2.903-6.125L389.398,2.953C387.545,1.071,384.903,0,382.269,0H82.056    C65.482,0,52,13.486,52,30.063V250.29c0,5.57,4.516,10.085,10.083,10.085c5.57,0,10.084-4.515,10.084-10.085V30.063    c0-5.455,4.436-9.893,9.889-9.893h290.13v37.576c0,16.576,13.494,30.062,30.082,30.062h37.565v394.101    c0,5.471-4.448,9.921-9.916,9.921H82.056c-5.453,0-9.889-4.45-9.889-9.921V332.636c0-5.57-4.514-10.085-10.084-10.085    c-5.567,0-10.083,4.515-10.083,10.085v149.273C52,498.501,65.482,512,82.056,512h347.861C446.505,512,460,498.501,460,481.909    V77.723c0-0.357-0.023-0.712-0.057-1.067C459.949,76.714,459.973,76.955,459.949,76.717    C459.925,76.474,459.982,77.05,459.949,76.717z M392.353,57.746V34.427l33.215,33.211h-23.3    C396.801,67.638,392.353,63.201,392.353,57.746z"/>
		<path d="M62.083,300.499c5.57,0,10.084-4.515,10.084-10.085v-0.283c0-5.57-4.514-10.085-10.084-10.085    c-5.567,0-10.083,4.515-10.083,10.085v0.283C52,295.984,56.516,300.499,62.083,300.499z"/>
		<path d="M149.162,168.002c-3.879,0-8.639-0.567-11.896-4.194c-1.161-1.275-2.152-2.465-3.088-3.457    c-7.791-8.161-21.161,3.173-13.059,13.771c2.946,3.854,4.533,5.327,8.81,8.047c3.201,2.041,6.769,3.513,10.736,4.42v10.399    c0,4.817,3.965,8.784,8.781,8.784c4.844,0,8.951-3.967,8.951-8.784c0-3.514,0-6.999,0-10.485    c6.373-1.501,11.785-4.591,16.261-9.237c4.446-4.676,6.686-10.91,6.686-18.646c0-5.271-1.021-9.663-3.032-13.204    c-2.039-3.514-4.561-5.98-7.536-7.368c-2.973-1.417-6.259-2.635-9.857-3.655c-3.569-1.049-6.855-1.813-9.831-2.238    c-2.973-0.453-5.494-1.36-7.534-2.692c-2.038-1.331-3.03-3.116-3.03-5.298c0-10.428,15.297-9.153,22.038-3.486    c9.971,8.388,21.105-6.942,9.546-15.584l-1.332-1.22c-0.905-0.68-2.49-1.587-4.785-2.664c-2.267-1.105-4.816-1.955-7.593-2.549    V86.507c0-4.817-3.937-8.784-8.782-8.784c-4.844,0-8.78,3.967-8.78,8.784v10.031v2.012c-6.458,1.246-11.813,4.477-15.525,9.21    c-3.768,4.788-5.665,10.144-5.665,16.122c0,5.95,1.389,10.881,4.165,14.764c2.775,3.854,6.175,6.602,10.141,8.189    c3.966,1.587,7.959,2.862,11.927,3.797c3.965,0.963,7.363,2.012,10.14,3.202c2.776,1.19,4.166,2.891,4.166,5.073    C160.184,164.97,156.5,168.002,149.162,168.002z"/>
	</g>
</g>















</svg>
