<svg height="512pt" viewBox="-76 0 512 512" width="512pt" xmlns="http://www.w3.org/2000/svg"><path d="m360 512h-360v-512h301.214844l58.785156 58.785156zm0 0" fill="#deecf1"/><path d="m360 58.785156-58.785156-58.785156h-121.214844v512h180zm0 0" fill="#c6e2e7"/><path d="m360 110h-110v-110h51.214844l58.785156 58.785156zm0 0" fill="#00c0f1"/><path d="m150 90h-30v-30h-30v30h-30v30h30v30h30v-30h30zm0 0" fill="#f03800"/><path d="m210 153h90v30h-90zm0 0" fill="#00465f"/><path d="m210 213h60v30h-60zm0 0" fill="#00465f"/><path d="m60 293h240v30h-240zm0 0" fill="#00607f"/><path d="m60 353h240v30h-240zm0 0" fill="#00607f"/><path d="m210 413h90v30h-90zm0 0" fill="#8ebac5"/><g fill="#00465f"><path d="m180 293h120v30h-120zm0 0"/><path d="m180 353h120v30h-120zm0 0"/></g></svg>