<svg height="512pt" viewBox="0 0 512 512.001" width="512pt" xmlns="http://www.w3.org/2000/svg"><path d="m452.085938 384.871094-56.1875-56.183594c-8.605469-8.609375-20.507813-13.050781-32.65625-12.21875-12.148438.84375-23.320313 6.898438-30.660157 16.613281l-26.375 34.929688c-10.035156 13.289062-28.40625 17.644531-42.734375 10.132812-.429687-.226562-.863281-.460937-1.289062-.710937-52.945313-30.539063-97.074219-74.667969-127.617188-127.613282-.246094-.429687-.484375-.863281-.710937-1.296874-7.511719-14.324219-3.152344-32.695313 10.132812-42.726563l34.929688-26.378906c9.714843-7.339844 15.769531-18.511719 16.617187-30.65625.84375-12.148438-3.613281-24.050781-12.222656-32.660157l-56.183594-56.183593c-20.335937-20.335938-53.425781-20.335938-73.761718 0-43.320313 43.324219-61.898438 105.035156-49.683594 165.074219 14.242187 70.035156 48.484375 133.765624 99.023437 184.304687 50.535157 50.535156 114.265625 84.777344 184.300781 99.023437 12.152344 2.472657 24.367188 3.679688 36.488282 3.679688 47.773437 0 94.03125-18.8125 128.589844-53.367188 9.851562-9.851562 15.273437-22.949218 15.273437-36.878906 0-13.933594-5.425781-27.03125-15.273437-36.882812zm0 0" fill="#78c2a4"/><path d="m467.359375 421.753906c0 13.929688-5.425781 27.027344-15.273437 36.878906-34.558594 34.554688-80.816407 53.367188-128.589844 53.367188-12.121094 0-24.335938-1.207031-36.488282-3.679688-38.890624-7.910156-75.835937-22-109.660156-41.609374 22.289063 9.460937 45.605469 16.714843 69.664063 21.609374 12.152343 2.472657 24.363281 3.679688 36.488281 3.679688 47.769531 0 94.03125-18.808594 128.585938-53.367188 9.851562-9.851562 15.277343-22.949218 15.277343-36.878906 0-13.933594-5.425781-27.03125-15.277343-36.882812l-48.421876-48.421875c12-.699219 23.726563 3.730469 32.234376 12.238281l56.1875 56.183594c9.847656 9.851562 15.273437 22.949218 15.273437 36.882812zm-324.042969-325.652344c8.609375 8.609376 13.0625 20.515626 12.21875 32.660157s-6.898437 23.320312-16.617187 30.65625l-34.925781 26.378906c-13.289063 10.03125-17.644532 28.402344-10.136719 42.730469.226562.429687.464843.863281.714843 1.292968 30.539063 52.945313 74.667969 97.074219 127.613282 127.613282.429687.25.859375.484375 1.292968.710937 4.421876 2.320313 9.226563 3.503907 14.054688 3.648438-42.027344-29.210938-77.296875-67.476563-102.964844-111.972657-.246094-.429687-.484375-.863281-.710937-1.296874-7.511719-14.324219-3.15625-32.695313 10.132812-42.726563l34.929688-26.378906c9.714843-7.339844 15.769531-18.511719 16.613281-30.65625.84375-12.148438-3.609375-24.050781-12.21875-32.660157l-56.183594-56.183593c-9.742187-9.746094-22.414062-14.804688-35.210937-15.210938zm0 0" fill="#4fab86"/><path d="m483.59375 0h-174.53125c-15.664062 0-28.410156 12.742188-28.410156 28.40625v174.535156c0 15.660156 12.746094 28.40625 28.410156 28.40625h45.046875c3.199219 0 6.273437 1.507813 8.234375 4.035156l28.054688 36.226563c1.417968 1.835937 3.609374 2.910156 5.929687 2.910156s4.507813-1.074219 5.929687-2.910156l28.054688-36.226563c1.957031-2.527343 5.035156-4.035156 8.230469-4.035156h45.050781c15.664062 0 28.40625-12.746094 28.40625-28.40625v-174.535156c0-15.664062-12.742188-28.40625-28.40625-28.40625zm0 0" fill="#dce6eb"/><path d="m483.59375 0h-12.863281c.824219 2.65625 1.273437 5.480469 1.273437 8.40625v147.835938c0 30.433593-24.671875 55.105468-55.105468 55.105468h-134.972657c3.59375 11.570313 14.398438 20 27.136719 20h45.046875c3.199219 0 6.273437 1.507813 8.234375 4.035156l28.054688 36.226563c1.417968 1.835937 3.609374 2.910156 5.929687 2.910156s4.507813-1.074219 5.929687-2.910156l28.054688-36.226563c1.972656-2.546874 5.011719-4.039062 8.230469-4.039062h45.050781c15.6875 0 28.40625-12.71875 28.40625-28.40625v-174.53125c0-15.6875-12.71875-28.40625-28.40625-28.40625zm0 0" fill="#b9c3cd"/><path d="m457.253906 93.828125h-35.777344c-1.4375 0-2.605468-1.167969-2.605468-2.605469v-35.777344c0-1.441406-1.167969-2.605468-2.605469-2.605468h-39.875c-1.4375 0-2.605469 1.164062-2.605469 2.605468v35.777344c0 1.4375-1.167968 2.605469-2.605468 2.605469h-35.777344c-1.441406 0-2.609375 1.167969-2.609375 2.605469v39.875c0 1.4375 1.167969 2.605468 2.609375 2.605468h35.777344c1.4375 0 2.605468 1.167969 2.605468 2.605469v35.777344c0 1.441406 1.167969 2.609375 2.605469 2.609375h39.875c1.4375 0 2.605469-1.167969 2.605469-2.609375v-35.777344c0-1.4375 1.167968-2.605469 2.605468-2.605469h35.777344c1.441406 0 2.605469-1.167968 2.605469-2.605468v-39.875c0-1.4375-1.167969-2.605469-2.605469-2.605469zm0 0" fill="#e04955"/><path d="m457.253906 93.828125h-32.390625v15c0 5.570313-4.515625 10.085937-10.085937 10.085937h-10.65625c-11.183594 0-20.25 9.066407-20.25 20.25v10.652344c0 5.574219-4.515625 10.089844-10.085938 10.089844v17.390625c0 1.441406 1.167969 2.609375 2.605469 2.609375h39.875c1.4375 0 2.605469-1.167969 2.605469-2.609375v-35.777344c0-1.4375 1.167968-2.605469 2.605468-2.605469h35.777344c1.441406 0 2.605469-1.167968 2.605469-2.605468v-39.875c0-1.4375-1.167969-2.605469-2.605469-2.605469zm0 0" fill="#c62430"/></svg>